<?xml version="1.0" standalone="no"?>
<!DOCTYPE svg PUBLIC "-//W3C//DTD SVG 20010904//EN"
 "http://www.w3.org/TR/2001/REC-SVG-20010904/DTD/svg10.dtd">
<svg version="1.0" xmlns="http://www.w3.org/2000/svg"
 width="924.000000pt" height="924.000000pt" viewBox="0 0 924.000000 924.000000"
 preserveAspectRatio="xMidYMid meet">
<metadata>
Created by potrace 1.14, written by Peter Selinger 2001-2017
</metadata>
<g transform="translate(0.000000,924.000000) scale(0.100000,-0.100000)"
fill="#000000" stroke="none">
<path d="M2945 9216 c-131 -42 -255 -148 -332 -286 -34 -60 -564 -1269 -1003
-2285 -112 -259 -349 -805 -365 -840 -7 -16 -45 -102 -83 -190 -38 -88 -90
-203 -116 -256 -25 -52 -46 -100 -46 -106 0 -5 -31 -81 -68 -169 -143 -332
-295 -681 -312 -719 -58 -126 -363 -835 -378 -878 -24 -74 -24 -262 2 -337 89
-263 314 -423 581 -415 111 4 169 17 261 62 121 58 232 173 313 325 31 57 556
1373 585 1466 4 12 13 22 19 23 30 3 1193 5 1199 2 3 -2 -18 -47 -48 -101 -44
-80 -89 -175 -164 -347 -45 -102 -117 -353 -148 -515 -20 -103 -26 -136 -38
-235 -3 -27 -8 -61 -11 -75 -8 -49 -10 -536 -3 -620 17 -189 59 -440 91 -536
5 -17 12 -42 14 -55 27 -138 183 -509 292 -694 69 -115 178 -277 218 -321 5
-7 26 -31 45 -55 305 -382 780 -708 1275 -873 334 -112 615 -155 1028 -157
130 0 185 -4 181 -11 -5 -7 -2 -8 7 -2 8 5 93 9 189 9 143 0 177 -3 188 -15
11 -13 11 -13 7 0 -5 13 9 15 97 15 57 0 109 -4 116 -8 6 -5 12 -4 12 0 0 11
131 10 148 0 6 -5 12 -5 12 0 0 11 181 10 199 -1 10 -6 12 -5 7 2 -4 7 -3 12
3 12 5 0 13 -5 16 -10 4 -6 11 -7 17 -3 19 11 182 10 197 -1 11 -8 13 -8 7 2
-4 6 -3 12 3 12 5 0 13 -5 16 -10 4 -6 11 -7 17 -4 17 11 92 12 106 1 8 -6 12
-6 12 1 0 12 18 11 39 -2 8 -6 12 -5 8 0 -7 12 122 12 141 1 6 -5 12 -4 12 0
0 11 131 10 148 0 6 -5 12 -4 12 0 0 11 131 10 148 0 6 -5 12 -4 12 0 0 11
131 10 148 0 6 -5 12 -5 12 0 0 11 181 10 199 -1 10 -6 12 -5 7 2 -4 7 -3 12
3 12 5 0 13 -5 16 -10 4 -6 11 -7 17 -4 16 10 118 11 118 1 0 -4 6 -5 12 -1 7
5 69 9 138 10 133 3 201 19 281 70 20 13 40 21 43 18 3 -2 5 -2 3 1 -2 2 25
34 60 71 35 37 63 70 63 74 0 4 10 29 22 56 27 61 28 62 34 159 10 142 -39
270 -142 370 -50 48 -144 105 -172 105 -7 0 -11 3 -9 8 3 4 -5 7 -16 8 -12 0
-40 4 -62 8 -22 4 -201 7 -397 7 l-357 1 17 23 c9 13 27 29 40 36 12 7 22 18
22 25 0 7 8 19 18 26 10 7 38 39 64 70 25 31 48 55 52 52 3 -2 4 -1 1 2 -5 7
53 86 67 92 5 2 8 10 8 17 0 7 3 15 8 17 18 8 113 167 188 315 45 89 85 159
90 155 4 -4 4 -2 1 4 -8 13 50 177 64 182 5 2 7 8 3 13 -3 5 -2 15 3 22 4 6 8
17 9 22 1 6 11 42 22 80 19 62 57 222 68 283 18 100 25 146 30 207 4 39 12 73
18 77 7 5 7 8 1 8 -7 0 -8 22 -4 63 7 67 4 486 -4 527 -3 14 -8 59 -12 100 -8
92 -47 309 -73 410 -28 107 -62 222 -73 245 -4 11 -18 47 -30 80 -24 66 -46
118 -91 212 -16 34 -26 68 -22 74 4 7 3 9 -3 6 -5 -3 -18 11 -28 31 -43 81
-99 177 -107 183 -5 3 -10 15 -11 27 0 11 -4 19 -7 17 -3 -2 -28 31 -55 72
-28 42 -55 81 -60 87 -6 6 -26 31 -45 56 -19 25 -48 60 -65 79 -16 18 -29 39
-27 45 2 6 1 8 -3 4 -8 -8 -61 52 -57 65 1 5 -1 6 -6 3 -5 -3 -30 17 -56 43
-25 27 -76 75 -113 108 -36 32 -81 72 -99 90 -19 17 -34 28 -34 25 -1 -4 -10
4 -20 17 -11 13 -20 20 -20 17 0 -3 -19 9 -43 27 -151 113 -347 226 -536 308
-55 24 -97 47 -95 51 3 4 -1 5 -9 2 -8 -3 -38 5 -68 16 -30 12 -74 29 -98 37
-72 24 -353 93 -381 93 -15 0 -30 3 -33 6 -4 4 -28 9 -54 11 -27 2 -59 6 -73
8 -149 27 -658 27 -825 0 -73 -12 -92 -15 -130 -20 -62 -9 -74 -12 -175 -36
-52 -12 -105 -22 -118 -23 -20 -1 -38 33 -173 339 -167 376 -372 848 -664
1530 -343 801 -477 1109 -502 1160 -83 164 -204 272 -348 310 -71 18 -195 19
-250 1z m161 -1909 c11 -34 80 -219 152 -412 71 -192 187 -503 257 -690 70
-187 142 -383 161 -435 20 -52 40 -105 46 -117 6 -13 9 -26 5 -29 -6 -6 -1337
-12 -1337 -6 0 3 66 173 368 947 88 226 172 442 187 480 15 39 33 84 40 100 7
17 29 74 50 128 20 53 40 97 44 97 3 0 15 -28 27 -63z m2774 -2211 c614 -38
1136 -352 1470 -886 125 -199 245 -503 284 -720 2 -14 7 -36 10 -50 3 -14 8
-45 11 -70 2 -25 7 -67 11 -94 11 -101 12 -261 0 -275 -8 -11 -8 -13 1 -8 15
9 7 -167 -9 -196 -6 -11 -6 -17 0 -14 5 4 3 -31 -5 -81 -16 -100 -21 -127 -23
-127 -1 0 -3 -9 -4 -20 -7 -56 -18 -95 -27 -95 -6 0 -7 -5 -4 -10 7 -11 -34
-160 -44 -160 -3 0 -7 -12 -8 -26 0 -15 -6 -30 -13 -34 -6 -4 -11 -10 -11 -14
4 -28 -1 -38 -15 -32 -14 5 -15 4 -5 -8 9 -11 8 -22 -5 -50 -10 -19 -22 -32
-27 -29 -6 3 -7 1 -3 -6 8 -13 -14 -71 -27 -71 -5 0 -5 -4 -2 -10 3 -5 1 -10
-5 -10 -6 0 -8 -4 -5 -10 3 -5 1 -10 -5 -10 -6 0 -8 -5 -4 -12 5 -7 2 -9 -9
-5 -11 4 -14 2 -11 -8 6 -14 -65 -145 -78 -145 -4 0 -8 -5 -8 -11 0 -19 -101
-149 -111 -143 -5 3 -6 -1 -4 -9 4 -8 -34 -55 -92 -114 -114 -118 -181 -175
-194 -167 -5 3 -8 1 -7 -4 4 -12 -83 -82 -94 -76 -4 3 -8 1 -8 -4 0 -5 -33
-29 -72 -53 -106 -64 -120 -70 -135 -64 -8 2 -12 1 -9 -4 3 -5 -23 -22 -59
-39 -74 -36 -235 -94 -235 -85 0 3 -7 0 -15 -7 -8 -7 -15 -9 -15 -6 0 4 -8 2
-18 -3 -10 -5 -37 -12 -60 -14 -22 -3 -45 -8 -50 -11 -5 -3 -35 -8 -67 -11
-32 -3 -62 -8 -67 -11 -18 -12 -346 -18 -443 -9 -132 12 -200 23 -325 51 -56
12 -196 57 -204 65 -6 5 -16 9 -22 9 -15 0 -136 55 -147 67 -5 4 -12 8 -15 8
-19 1 -130 70 -125 79 3 5 2 6 -4 3 -11 -7 -132 73 -208 138 -105 90 -285 285
-285 309 0 3 -10 17 -22 32 -13 14 -23 29 -23 32 0 4 -8 18 -16 32 -56 89 -79
132 -73 142 4 6 3 8 -2 5 -9 -5 -68 109 -118 226 -9 20 -22 52 -30 70 -21 48
-65 174 -70 200 -3 12 -11 47 -20 77 -15 56 -24 112 -32 185 -2 22 -7 58 -11
80 -10 55 -10 445 0 525 15 120 46 283 67 355 55 181 93 278 161 411 97 190
179 306 179 253 0 -5 18 -48 39 -96 21 -49 69 -158 106 -243 37 -85 75 -173
85 -195 52 -119 117 -272 194 -459 98 -235 136 -298 247 -408 196 -192 465
-235 699 -111 71 38 156 111 202 174 44 60 94 180 104 247 5 42 5 164 -1 192
-2 14 -8 39 -11 55 -5 24 -133 334 -198 480 -8 17 -25 57 -39 90 -114 267
-302 706 -313 730 -53 120 -112 261 -109 263 6 6 127 32 194 43 36 5 122 12
191 16 69 3 126 7 128 8 1 1 15 1 30 -1 15 -1 70 -5 122 -8z"/>
<path d="M7615 2671 c-3 -5 -2 -12 3 -15 5 -3 9 1 9 9 0 17 -3 19 -12 6z"/>
<path d="M7120 1600 c-9 -6 -10 -10 -3 -10 6 0 15 5 18 10 8 12 4 12 -15 0z"/>
<path d="M6233 1075 c0 -8 4 -12 9 -9 5 3 6 10 3 15 -9 13 -12 11 -12 -6z"/>
</g>
</svg>
